<svg width="128" height="32" viewBox="0 0 128 32" fill="none" xmlns="http://www.w3.org/2000/svg">
  <rect x="1" y="1" width="30" height="30" rx="10" fill="#0F172A"/>
  <path d="M9 16L16 9H24V16L16 23L9 16Z" fill="#F8FAFC"/>
  <path d="M16 12.5L19.5 16L16 19.5L12.5 16L16 12.5Z" fill="#0F172A"/>
  <path d="M41 11.4H45.7V21H41V11.4Z" fill="#0F172A"/>
  <path d="M47.7 11.4H57.5V14.5H51.5V15.1H56.9V17.9H51.5V21H47.7V11.4Z" fill="#0F172A"/>
  <path d="M59 11.4H68.8V14.2H62.8V15H68.2V17.6H62.8V18.2H68.9V21H59V11.4Z" fill="#0F172A"/>
  <path d="M70.3 11.4H74.1V18H79.8V21H70.3V11.4Z" fill="#0F172A"/>
  <path d="M81.1 11.4H84.9V21H81.1V11.4Z" fill="#0F172A"/>
  <path d="M86.9 16.2C86.9 13 89.2 11.1 92.6 11.1C95.9 11.1 98.2 13 98.2 16.2C98.2 19.4 95.9 21.3 92.6 21.3C89.2 21.3 86.9 19.4 86.9 16.2ZM94.3 16.2C94.3 14.9 93.6 14.2 92.6 14.2C91.5 14.2 90.8 14.9 90.8 16.2C90.8 17.5 91.5 18.2 92.6 18.2C93.6 18.2 94.3 17.5 94.3 16.2Z" fill="#0F172A"/>
  <path d="M99.8 11.4H104.7L107.1 16.6L109.5 11.4H114.3V21H110.7V16.6L108.6 21H105.6L103.5 16.6V21H99.8V11.4Z" fill="#0F172A"/>
  <path d="M116.1 11.4H125.9V14.2H119.9V15H125.3V17.6H119.9V18.2H126V21H116.1V11.4Z" fill="#0F172A"/>
</svg>
